Normalized EMG Linear Envelopes
nRows=286
nColumns=4

endheader
time	 med_gas_r	  soleus_r	 tib_ant_r	
2.92723	  0.088772	  0.077778	  0.025340	
2.9605	  0.087375	  0.078257	  0.025588	
2.99376	  0.086559	  0.078892	  0.025747	
3.02702	  0.086797	  0.079774	  0.025787	
3.06029	  0.087943	  0.080819	  0.025686	
3.09355	  0.090178	  0.081833	  0.025515	
3.12682	  0.093083	  0.082615	  0.025434	
3.16008	  0.095130	  0.083153	  0.025485	
3.19334	  0.095553	  0.083545	  0.025601	
3.22661	  0.095229	  0.083848	  0.025684	
3.25987	  0.095356	  0.083962	  0.025683	
3.29314	  0.096505	  0.083894	  0.025571	
3.3264	  0.098794	  0.083785	  0.025384	
3.35966	  0.102195	  0.083522	  0.025162	
3.39293	  0.105612	  0.082929	  0.024975	
3.42619	  0.106438	  0.082313	  0.024880	
3.45946	  0.102489	  0.082060	  0.024921	
3.49272	  0.095094	  0.082279	  0.024993	
3.52598	  0.087012	  0.083067	  0.024956	
3.55925	  0.080441	  0.084232	  0.024801	
3.59251	  0.076514	  0.085406	  0.024628	
3.62578	  0.075278	  0.086259	  0.024554	
3.65904	  0.076131	  0.086646	  0.024588	
3.6923	  0.078814	  0.086778	  0.024590	
3.72557	  0.082916	  0.086828	  0.024404	
3.75883	  0.087615	  0.086888	  0.023999	
3.7921	  0.091741	  0.087028	  0.023498	
3.82536	  0.093921	  0.087164	  0.023015	
3.85862	  0.095095	  0.086960	  0.022620	
3.89189	  0.096276	  0.086230	  0.022371	
3.92515	  0.097800	  0.085116	  0.022259	
3.95842	  0.099322	  0.083782	  0.022293	
3.99168	  0.100303	  0.082433	  0.022467	
4.02494	  0.100016	  0.081387	  0.022769	
4.05821	  0.097992	  0.080997	  0.023174	
4.09147	  0.095075	  0.081250	  0.023631	
4.12474	  0.092425	  0.081809	  0.023990	
4.158	  0.090584	  0.082428	  0.024144	
4.19126	  0.089722	  0.082801	  0.024125	
4.22453	  0.089260	  0.082546	  0.024041	
4.25779	  0.088368	  0.081617	  0.024031	
4.29106	  0.087423	  0.080476	  0.024169	
4.32432	  0.087026	  0.079617	  0.024364	
4.35758	  0.087682	  0.079188	  0.024552	
4.39085	  0.089406	  0.079243	  0.024713	
4.42411	  0.091815	  0.079986	  0.024775	
4.45738	  0.093882	  0.081480	  0.024615	
4.49064	  0.094587	  0.083480	  0.024257	
4.5239	  0.092984	  0.085468	  0.023777	
4.55717	  0.089578	  0.086788	  0.023295	
4.59043	  0.085782	  0.087520	  0.022894	
4.6237	  0.082519	  0.088006	  0.022615	
4.65696	  0.080359	  0.088477	  0.022443	
4.69022	  0.079588	  0.088744	  0.022377	
4.72349	  0.080131	  0.088494	  0.022438	
4.75675	  0.081350	  0.087559	  0.022641	
4.79002	  0.082889	  0.086019	  0.023011	
4.82328	  0.084988	  0.084097	  0.023497	
4.85654	  0.087950	  0.082044	  0.024018	
4.88981	  0.091848	  0.079961	  0.024456	
4.92307	  0.096225	  0.077798	  0.024756	
4.95634	  0.100562	  0.075789	  0.024908	
4.9896	  0.105117	  0.074240	  0.024924	
5.02286	  0.110425	  0.073301	  0.024903	
5.05613	  0.116383	  0.072935	  0.024944	
5.08939	  0.122268	  0.073188	  0.025098	
5.12266	  0.126680	  0.074022	  0.025347	
5.15592	  0.127476	  0.075071	  0.025623	
5.18918	  0.124100	  0.076083	  0.025871	
5.22245	  0.118307	  0.077197	  0.026043	
5.25571	  0.112609	  0.078730	  0.026077	
5.28898	  0.108121	  0.080724	  0.025910	
5.32224	  0.104394	  0.082845	  0.025529	
5.3555	  0.100842	  0.084457	  0.024961	
5.38877	  0.098811	  0.085036	  0.024275	
5.42203	  0.099557	  0.084615	  0.023606	
5.4553	  0.102917	  0.083548	  0.023213	
5.48856	  0.107636	  0.082121	  0.023467	
5.52182	  0.112042	  0.080868	  0.024785	
5.55509	  0.114453	  0.080229	  0.027706	
5.58835	  0.114955	  0.080210	  0.032775	
5.62162	  0.114794	  0.080488	  0.040445	
5.65488	  0.115269	  0.080863	  0.050992	
5.68814	  0.116578	  0.081386	  0.064371	
5.72141	  0.117454	  0.082520	  0.079957	
5.75467	  0.118011	  0.084548	  0.096321	
5.78794	  0.119652	  0.087246	  0.111611	
5.8212	  0.123238	  0.090096	  0.125549	
5.85446	  0.128053	  0.093156	  0.140351	
5.88773	  0.132851	  0.097011	  0.158477	
5.92099	  0.137764	  0.102092	  0.180548	
5.95426	  0.141905	  0.108242	  0.206451	
5.98752	  0.142528	  0.114967	  0.237025	
6.02078	  0.138597	  0.121898	  0.271355	
6.05405	  0.132175	  0.129539	  0.309124	
6.08731	  0.125471	  0.138435	  0.351667	
6.12058	  0.120238	  0.148270	  0.401249	
6.15384	  0.116681	  0.158523	  0.458579	
6.1871	  0.114687	  0.168802	  0.522381	
6.22037	  0.114489	  0.178475	  0.589527	
6.25363	  0.115613	  0.186301	  0.653233	
6.2869	  0.117361	  0.191329	  0.705588	
6.32016	  0.119296	  0.193761	  0.741170	
6.35342	  0.121445	  0.194976	  0.757990	
6.38669	  0.123667	  0.197035	  0.759571	
6.41995	  0.125488	  0.201330	  0.749357	
6.45322	  0.126526	  0.208566	  0.731310	
6.48648	  0.126751	  0.218994	  0.707957	
6.51974	  0.127320	  0.231545	  0.683201	
6.55301	  0.129193	  0.244081	  0.663805	
6.58627	  0.132545	  0.253066	  0.654197	
6.61954	  0.137076	  0.256742	  0.653457	
6.6528	  0.143162	  0.257591	  0.659145	
6.68606	  0.151258	  0.256211	  0.664882	
6.71933	  0.160805	  0.253977	  0.667357	
6.75259	  0.171175	  0.253178	  0.665516	
6.78586	  0.182133	  0.253757	  0.658718	
6.81912	  0.191680	  0.253889	  0.647623	
6.85238	  0.196718	  0.253308	  0.631714	
6.88565	  0.197467	  0.253400	  0.614260	
6.91891	  0.196035	  0.254063	  0.596471	
6.95218	  0.194280	  0.254739	  0.579199	
6.98544	  0.192423	  0.255999	  0.562875	
7.0187	  0.190992	  0.257754	  0.547038	
7.05197	  0.191138	  0.259462	  0.534195	
7.08523	  0.192515	  0.260176	  0.525002	
7.1185	  0.193116	  0.261467	  0.516618	
7.15176	  0.192285	  0.264471	  0.507559	
7.18502	  0.191799	  0.268159	  0.500822	
7.21829	  0.193152	  0.272045	  0.497133	
7.25155	  0.196209	  0.276035	  0.499599	
7.28482	  0.200355	  0.280307	  0.511233	
7.31808	  0.203698	  0.285162	  0.531746	
7.35134	  0.207524	  0.290316	  0.560505	
7.38461	  0.214353	  0.297296	  0.594328	
7.41787	  0.224766	  0.305884	  0.629910	
7.45114	  0.236890	  0.314336	  0.664362	
7.4844	  0.246644	  0.321254	  0.694790	
7.51766	  0.252029	  0.324861	  0.719300	
7.55093	  0.254754	  0.326393	  0.737828	
7.58419	  0.255768	  0.326142	  0.748606	
7.61746	  0.254048	  0.324125	  0.752679	
7.65072	  0.249256	  0.321078	  0.748881	
7.68398	  0.243898	  0.316520	  0.737912	
7.71725	  0.240846	  0.312096	  0.719797	
7.75051	  0.241238	  0.307248	  0.698582	
7.78378	  0.245855	  0.301672	  0.679697	
7.81704	  0.255631	  0.296135	  0.666413	
7.8503	  0.269530	  0.291780	  0.657050	
7.88357	  0.284164	  0.288884	  0.650431	
7.91683	  0.296455	  0.287825	  0.646125	
7.9501	  0.306475	  0.290096	  0.647073	
7.98336	  0.315898	  0.295210	  0.654668	
8.01662	  0.323936	  0.301500	  0.667120	
8.04989	  0.327074	  0.307581	  0.680701	
8.08315	  0.323185	  0.312568	  0.691472	
8.11642	  0.315311	  0.318241	  0.698105	
8.14968	  0.307995	  0.324713	  0.700160	
8.18294	  0.303311	  0.332674	  0.698977	
8.21621	  0.300543	  0.341414	  0.696661	
8.24947	  0.299031	  0.349629	  0.696282	
8.28274	  0.299970	  0.355592	  0.700307	
8.316	  0.303273	  0.357197	  0.708793	
8.34926	  0.306959	  0.354451	  0.719438	
8.38253	  0.307824	  0.347624	  0.729696	
8.41579	  0.307981	  0.340238	  0.738411	
8.44906	  0.311309	  0.334003	  0.745248	
8.48232	  0.318323	  0.328794	  0.749704	
8.51558	  0.326106	  0.324520	  0.750909	
8.54885	  0.332886	  0.322439	  0.750978	
8.58211	  0.339473	  0.323248	  0.750733	
8.61538	  0.345718	  0.325848	  0.750633	
8.64864	  0.350180	  0.330130	  0.749461	
8.6819	  0.352773	  0.334240	  0.743498	
8.71517	  0.354950	  0.337282	  0.732053	
8.74843	  0.358405	  0.340128	  0.715607	
8.7817	  0.364535	  0.342430	  0.695975	
8.81496	  0.373364	  0.344109	  0.677345	
8.84822	  0.385918	  0.345478	  0.664349	
8.88149	  0.401066	  0.347199	  0.660492	
8.91475	  0.416502	  0.348073	  0.666015	
8.94802	  0.428030	  0.347550	  0.673987	
8.98128	  0.434142	  0.344630	  0.677796	
9.01454	  0.436927	  0.339879	  0.673343	
9.04781	  0.439566	  0.335542	  0.662884	
9.08107	  0.441151	  0.332067	  0.652844	
9.11434	  0.437684	  0.329685	  0.647751	
9.1476	  0.430277	  0.328695	  0.648829	
9.18086	  0.423452	  0.328560	  0.656820	
9.21413	  0.418634	  0.330281	  0.668663	
9.24739	  0.415453	  0.332807	  0.680063	
9.28066	  0.415854	  0.335891	  0.690119	
9.31392	  0.422782	  0.339825	  0.699292	
9.34718	  0.433158	  0.345356	  0.710831	
9.38045	  0.441972	  0.352166	  0.724639	
9.41371	  0.449548	  0.357980	  0.735969	
9.44698	  0.458787	  0.362573	  0.743015	
9.48024	  0.467710	  0.364594	  0.745678	
9.5135	  0.473022	  0.363498	  0.744209	
9.54677	  0.473766	  0.361792	  0.740084	
9.58003	  0.468695	  0.360872	  0.734508	
9.6133	  0.458862	  0.363065	  0.729612	
9.64656	  0.446561	  0.368939	  0.727719	
9.67982	  0.433699	  0.378179	  0.730525	
9.71309	  0.422780	  0.388463	  0.737685	
9.74635	  0.416218	  0.396927	  0.748147	
9.77962	  0.412851	  0.403496	  0.759501	
9.81288	  0.412651	  0.408779	  0.766663	
9.84614	  0.414633	  0.411743	  0.768122	
9.87941	  0.416318	  0.409790	  0.764297	
9.91267	  0.416101	  0.403578	  0.755935	
9.94594	  0.414197	  0.394860	  0.745000	
9.9792	  0.410337	  0.384205	  0.732427	
10.0125	  0.404817	  0.371888	  0.718749	
10.0457	  0.401144	  0.358645	  0.705233	
10.079	  0.401748	  0.346575	  0.695373	
10.1123	  0.403444	  0.338040	  0.692391	
10.1455	  0.403356	  0.333865	  0.693153	
10.1788	  0.402277	  0.334221	  0.692909	
10.212	  0.400229	  0.338740	  0.688820	
10.2453	  0.398559	  0.346310	  0.678953	
10.2786	  0.399059	  0.355240	  0.663244	
10.3118	  0.403318	  0.365541	  0.642921	
10.3451	  0.411531	  0.376699	  0.620294	
10.3784	  0.423240	  0.388047	  0.595917	
10.4116	  0.437127	  0.399179	  0.573984	
10.4449	  0.450777	  0.409361	  0.558758	
10.4782	  0.460512	  0.419230	  0.550222	
10.5114	  0.464130	  0.428288	  0.545770	
10.5447	  0.461930	  0.435270	  0.542313	
10.578	  0.454745	  0.439159	  0.535361	
10.6112	  0.444134	  0.440415	  0.523609	
10.6445	  0.432267	  0.439328	  0.508938	
10.6777	  0.421830	  0.434714	  0.495557	
10.711	  0.415302	  0.427062	  0.486751	
10.7443	  0.415041	  0.419215	  0.483648	
10.7775	  0.419641	  0.413720	  0.487079	
10.8108	  0.424253	  0.411423	  0.498102	
10.8441	  0.425041	  0.413083	  0.515690	
10.8773	  0.422178	  0.417951	  0.537035	
10.9106	  0.415059	  0.423477	  0.559879	
10.9439	  0.404474	  0.427012	  0.583573	
10.9771	  0.394161	  0.427228	  0.607014	
11.0104	  0.387612	  0.423733	  0.627912	
11.0436	  0.387694	  0.416939	  0.642626	
11.0769	  0.396757	  0.407072	  0.648275	
11.1102	  0.414919	  0.394057	  0.646218	
11.1434	  0.439654	  0.381062	  0.639935	
11.1767	  0.466798	  0.372054	  0.632240	
11.21	  0.489603	  0.369209	  0.623966	
11.2432	  0.504273	  0.371503	  0.614685	
11.2765	  0.510396	  0.377363	  0.603849	
11.3098	  0.506480	  0.387320	  0.593398	
11.343	  0.493444	  0.400540	  0.585312	
11.3763	  0.478903	  0.416333	  0.579226	
11.4096	  0.466987	  0.430978	  0.572806	
11.4428	  0.458788	  0.443735	  0.565297	
11.4761	  0.454553	  0.455115	  0.557790	
11.5093	  0.452222	  0.463267	  0.549895	
11.5426	  0.449432	  0.465608	  0.541387	
11.5759	  0.448097	  0.461304	  0.531970	
11.6091	  0.450408	  0.452578	  0.520097	
11.6424	  0.454489	  0.441002	  0.507296	
11.6757	  0.459001	  0.426076	  0.492972	
11.7089	  0.464332	  0.410536	  0.476282	
11.7422	  0.470126	  0.397865	  0.458008	
11.7755	  0.473486	  0.389362	  0.439522	
11.8087	  0.471762	  0.385054	  0.423467	
11.842	  0.464282	  0.383207	  0.411057	
11.8752	  0.452625	  0.380227	  0.401272	
11.9085	  0.439938	  0.377861	  0.394760	
11.9418	  0.429588	  0.378223	  0.390826	
11.975	  0.421914	  0.381444	  0.386630	
12.0083	  0.417200	  0.388139	  0.380142	
12.0416	  0.416226	  0.396005	  0.370378	
12.0748	  0.418287	  0.403068	  0.359620	
12.1081	  0.422336	  0.409678	  0.350265	
12.1414	  0.428318	  0.413992	  0.343707	
12.1746	  0.435644	  0.414768	  0.342196	
12.2079	  0.440158	  0.412711	  0.344976	
12.2412	  0.441934	  0.407707	  0.349373	
12.2744	  0.442218	  0.400639	  0.354037	
12.3077	  0.439275	  0.393419	  0.358316	
12.3409	  0.432390	  0.388522	  0.361146	
12.3742	  0.423858	  0.387325	  0.363287	
12.4075	  0.414794	  0.389490	  0.365614	
